<svg width="287" height="284" viewBox="0 0 287 284" fill="none" xmlns="http://www.w3.org/2000/svg">
<circle cx="143.5" cy="142.078" r="141.922" fill="url(#paint0_radial_993_37470)"/>
<circle cx="143.5" cy="142.078" r="124.171" fill="url(#paint1_radial_993_37470)"/>
<circle r="19.863" transform="matrix(-1 0 0 1 225.6 183.959)" fill="#D1EDE6"/>
<rect width="55.6164" height="18.0974" transform="matrix(-1 0 0 1 252.526 194.111)" fill="#D1EDE6"/>
<circle r="9.2694" transform="matrix(-1 0 0 1 236.194 166.303)" fill="#D1EDE6"/>
<circle r="7.5038" transform="matrix(-1 0 0 1 243.257 181.31)" fill="#D1EDE6"/>
<circle r="7.5038" transform="matrix(-1 0 0 1 221.187 163.654)" fill="#D1EDE6"/>
<ellipse rx="17.2636" ry="16.9939" transform="matrix(-1 0 0 1 248.504 195.214)" fill="#D1EDE6"/>
<path d="M267.874 186.421H240.215C239.138 186.421 238.318 185.457 238.489 184.394L251.982 100.778C252.296 98.8269 255.1 98.8159 255.43 100.765L269.597 184.381C269.778 185.448 268.956 186.421 267.874 186.421Z" fill="#D1EDE6"/>
<rect x="246.346" y="172.031" width="5.2968" height="40.1768" fill="#D1EDE6"/>
<rect x="270.182" y="195.876" width="4.414" height="16.3318" fill="#D1EDE6"/>
<circle cx="280.566" cy="178.476" r="4.8554" fill="#D1EDE6"/>
<circle cx="266" cy="189.464" r="8.17752" fill="#D1EDE6"/>
<circle cx="277.244" cy="187.931" r="9.7108" fill="#D1EDE6"/>
<circle cx="265.234" cy="180.52" r="6.38869" fill="#D1EDE6"/>
<circle cx="272.389" cy="174.898" r="6.38869" fill="#D1EDE6"/>
<ellipse cx="40.2124" cy="182.845" rx="19.863" ry="20.3285" fill="#D1EDE6"/>
<rect x="13.287" y="193.235" width="55.6164" height="18.9733" fill="#D1EDE6"/>
<ellipse cx="29.6188" cy="164.775" rx="9.2694" ry="9.48665" fill="#D1EDE6"/>
<ellipse cx="22.5564" cy="180.134" rx="7.5038" ry="7.67967" fill="#D1EDE6"/>
<ellipse cx="44.6264" cy="162.064" rx="7.5038" ry="7.67967" fill="#D1EDE6"/>
<ellipse cx="14.1698" cy="197.752" rx="14.1248" ry="14.4559" fill="#D1EDE6"/>
<ellipse rx="19.863" ry="20.3285" transform="matrix(-1 0 0 1 189.406 182.845)" fill="#F9F9FF"/>
<ellipse rx="9.2694" ry="9.48665" transform="matrix(-1 0 0 1 199.999 164.775)" fill="#F9F9FF"/>
<ellipse rx="7.5038" ry="7.67967" transform="matrix(-1 0 0 1 207.062 180.134)" fill="#F9F9FF"/>
<ellipse rx="7.5038" ry="7.67967" transform="matrix(-1 0 0 1 184.992 162.064)" fill="#F9F9FF"/>
<path d="M47.6229 139.836L161.715 71.9478L237.259 139.836V212.208H47.6229V139.836Z" fill="#B6ABED"/>
<path d="M47.6229 139.836L161.715 71.9478L237.259 139.836V212.208H47.6229V139.836Z" fill="url(#paint2_linear_993_37470)"/>
<rect x="158.619" y="171.167" width="10.4316" height="24.4691" fill="#9B8EDE" stroke="url(#paint3_linear_993_37470)" stroke-width="2.03366"/>
<rect x="169.051" y="171.167" width="10.4316" height="24.4691" fill="#9B8EDE" stroke="url(#paint4_linear_993_37470)" stroke-width="2.03366"/>
<line x1="159.493" y1="182.384" x2="180.466" y2="182.384" stroke="url(#paint5_linear_993_37470)" stroke-width="2.03366"/>
<path d="M80.3983 181.237C80.3983 174.863 85.565 169.697 91.9383 169.697C98.3117 169.697 103.478 174.863 103.478 181.237V211.601H80.3983V181.237Z" fill="#9B8EDE" stroke="url(#paint6_linear_993_37470)" stroke-width="2.03366"/>
<rect x="113.779" y="112.357" width="59.4421" height="59.4422" rx="29.7211" fill="white" fill-opacity="0.2"/>
<rect x="103.5" y="102.078" width="80" height="80.0002" rx="40" fill="white" fill-opacity="0.15"/>
<rect x="121.242" y="119.82" width="44.5164" height="44.5165" rx="22.2582" fill="#463B8B"/>
<rect x="121.242" y="119.82" width="44.5164" height="44.5165" rx="22.2582" fill="url(#paint7_linear_993_37470)"/>
<path d="M144.5 132.078L134.5 144.078H143.5L142.5 152.078L152.5 140.078H143.5L144.5 132.078Z" stroke="url(#paint8_linear_993_37470)" stroke-width="2" stroke-linecap="round" stroke-linejoin="round"/>
<defs>
<radialGradient id="paint0_radial_993_37470" cx="0" cy="0" r="1" gradientUnits="userSpaceOnUse" gradientTransform="translate(165.5 86.578) rotate(-88.3581) scale(129.713 247.157)">
<stop stop-color="white" stop-opacity="0.7"/>
<stop offset="1" stop-color="#E6E6F7" stop-opacity="0"/>
</radialGradient>
<radialGradient id="paint1_radial_993_37470" cx="0" cy="0" r="1" gradientUnits="userSpaceOnUse" gradientTransform="translate(157 123.078) rotate(-86.3987) scale(143.283 273.014)">
<stop stop-color="#F9F4FF" stop-opacity="0.7"/>
<stop offset="1" stop-color="#E6E6F7" stop-opacity="0"/>
</radialGradient>
<linearGradient id="paint2_linear_993_37470" x1="142.441" y1="226.864" x2="142.441" y2="84.3644" gradientUnits="userSpaceOnUse">
<stop stop-color="#9081D7"/>
<stop offset="1" stop-color="#B6ABED" stop-opacity="0"/>
</linearGradient>
<linearGradient id="paint3_linear_993_37470" x1="169.051" y1="161.364" x2="155.545" y2="207.364" gradientUnits="userSpaceOnUse">
<stop stop-color="#B6ABED"/>
<stop offset="1" stop-color="#B6ABED" stop-opacity="0"/>
</linearGradient>
<linearGradient id="paint4_linear_993_37470" x1="187.545" y1="164.364" x2="159.545" y2="212.364" gradientUnits="userSpaceOnUse">
<stop stop-color="#B6ABED"/>
<stop offset="1" stop-color="#B6ABED" stop-opacity="0"/>
</linearGradient>
<linearGradient id="paint5_linear_993_37470" x1="169.98" y1="183.401" x2="169.98" y2="184.401" gradientUnits="userSpaceOnUse">
<stop stop-color="#B6ABED"/>
<stop offset="1" stop-color="#B6ABED" stop-opacity="0"/>
</linearGradient>
<linearGradient id="paint6_linear_993_37470" x1="91.9383" y1="169.697" x2="91.9383" y2="211.601" gradientUnits="userSpaceOnUse">
<stop stop-color="#B6ABED"/>
<stop offset="1" stop-color="#B6ABED" stop-opacity="0"/>
</linearGradient>
<linearGradient id="paint7_linear_993_37470" x1="152.802" y1="115.32" x2="136.802" y2="169.82" gradientUnits="userSpaceOnUse">
<stop stop-color="#8E7BFF"/>
<stop offset="1" stop-color="#484076" stop-opacity="0"/>
</linearGradient>
<linearGradient id="paint8_linear_993_37470" x1="148.302" y1="124.82" x2="139.802" y2="163.82" gradientUnits="userSpaceOnUse">
<stop stop-color="#F8CC7D"/>
<stop offset="1" stop-color="#FFF8B5"/>
</linearGradient>
</defs>
</svg>
